HIERARCHY
ROOT hip
{
  OFFSET 0 0 0
  CHANNELS 6 Xposition Yposition Zposition Zrotation Yrotation Xrotation
  JOINT abdomen
  {
    OFFSET 0 20.6881 -0.73152
    CHANNELS 3 Zrotation Xrotation Yrotation
    JOINT chest
    {
      OFFSET 0 11.7043 -0.48768
      CHANNELS 3 Zrotation Xrotation Yrotation
      JOINT neck
      {
        OFFSET 0 22.1894 -2.19456
        CHANNELS 3 Zrotation Xrotation Yrotation
        JOINT head
        {
          OFFSET -0.24384 7.07133 1.2192
          CHANNELS 3 Zrotation Xrotation Yrotation
          JOINT leftEye
          {
            OFFSET 4.14528 8.04674 8.04672
            CHANNELS 3 Zrotation Xrotation Yrotation
            End Site
            {
              OFFSET 1 0 0
            }
          }
          JOINT rightEye
          {
            OFFSET -3.6576 8.04674 8.04672
            CHANNELS 3 Zrotation Xrotation Yrotation
            End Site
            {
              OFFSET 1 0 0
            }
          }
        }
      }
      JOINT rCollar
      {
        OFFSET -2.68224 19.2634 -4.8768
        CHANNELS 3 Zrotation Xrotation Yrotation
        JOINT rShldr
        {
          OFFSET -8.77824 -1.95073 1.46304
          CHANNELS 3 Zrotation Xrotation Yrotation
          JOINT rForeArm
          {
            OFFSET -28.1742 -1.7115 0.48768
            CHANNELS 3 Zrotation Xrotation Yrotation
            JOINT rHand
            {
              OFFSET -22.5879 0.773209 7.07136
              CHANNELS 3 Zrotation Xrotation Yrotation
              JOINT rThumb1
              {
                OFFSET -1.2192 -0.487915 3.41376
                CHANNELS 3 Zrotation Xrotation Yrotation
                JOINT rThumb2
                {
                  OFFSET -3.37035 -0.52449 3.41376
                  CHANNELS 3 Zrotation Xrotation Yrotation
                  End Site
                  {
                    OFFSET -1.78271 -1.18214 1.43049
                  }
                }
              }
              JOINT rIndex1
              {
                OFFSET -7.75947 0.938293 5.60832
                CHANNELS 3 Zrotation Xrotation Yrotation
                JOINT rIndex2
                {
                  OFFSET -2.54057 -0.884171 1.56538
                  CHANNELS 3 Zrotation Xrotation Yrotation
                  End Site
                  {
                    OFFSET -1.62519 -0.234802 1.16502
                  }
                }
              }
              JOINT rMid1
              {
                OFFSET -8.24714 1.18213 3.41376
                CHANNELS 3 Zrotation Xrotation Yrotation
                JOINT rMid2
                {
                  OFFSET -3.10165 -0.590103 1.0647
                  CHANNELS 3 Zrotation Xrotation Yrotation
                  End Site
                  {
                    OFFSET -2.48547 -0.328903 0.83742
                  }
                }
              }
              JOINT rRing1
              {
                OFFSET -8.82822 0.546677 1.51678
                CHANNELS 3 Zrotation Xrotation Yrotation
                JOINT rRing2
                {
                  OFFSET -2.60934 -0.819778 -0.0198488
                  CHANNELS 3 Zrotation Xrotation Yrotation
                  End Site
                  {
                    OFFSET -2.33842 -0.294052 0.168128
                  }
                }
              }
              JOINT rPinky1
              {
                OFFSET -8.27202 -0.0477905 -0.4584
                CHANNELS 3 Zrotation Xrotation Yrotation
                JOINT rPinky2
                {
                  OFFSET -1.82734 -0.647385 -0.700984
                  CHANNELS 3 Zrotation Xrotation Yrotation
                  End Site
                  {
                    OFFSET -1.69225 -0.51767 -0.607171
                  }
                }
              }
            }
          }
        }
      }
      JOINT lCollar
      {
        OFFSET 2.68224 19.2634 -4.8768
        CHANNELS 3 Zrotation Xrotation Yrotation
        JOINT lShldr
        {
          OFFSET 8.77824 -1.95073 1.46304
          CHANNELS 3 Zrotation Xrotation Yrotation
          JOINT lForeArm
          {
            OFFSET 28.1742 -1.7115 0.48768
            CHANNELS 3 Zrotation Xrotation Yrotation
            JOINT lHand
            {
              OFFSET 22.5879 0.773209 7.07136
              CHANNELS 3 Zrotation Xrotation Yrotation
              JOINT lThumb1
              {
                OFFSET 1.2192 -0.487915 3.41376
                CHANNELS 3 Zrotation Xrotation Yrotation
                JOINT lThumb2
                {
                  OFFSET 3.37035 -0.52449 3.41376
                  CHANNELS 3 Zrotation Xrotation Yrotation
                  End Site
                  {
                    OFFSET 1.78271 -1.18214 1.43049
                  }
                }
              }
              JOINT lIndex1
              {
                OFFSET 7.75947 0.938293 5.60832
                CHANNELS 3 Zrotation Xrotation Yrotation
                JOINT lIndex2
                {
                  OFFSET 2.54057 -0.884171 1.56538
                  CHANNELS 3 Zrotation Xrotation Yrotation
                  End Site
                  {
                    OFFSET 1.62519 -0.234802 1.16502
                  }
                }
              }
              JOINT lMid1
              {
                OFFSET 8.24714 1.18213 3.41376
                CHANNELS 3 Zrotation Xrotation Yrotation
                JOINT lMid2
                {
                  OFFSET 3.10165 -0.590103 1.0647
                  CHANNELS 3 Zrotation Xrotation Yrotation
                  End Site
                  {
                    OFFSET 2.48547 -0.328903 0.83742
                  }
                }
              }
              JOINT lRing1
              {
                OFFSET 8.82822 0.546677 1.51678
                CHANNELS 3 Zrotation Xrotation Yrotation
                JOINT lRing2
                {
                  OFFSET 2.60934 -0.819778 -0.0198488
                  CHANNELS 3 Zrotation Xrotation Yrotation
                  End Site
                  {
                    OFFSET 2.33842 -0.294052 0.168128
                  }
                }
              }
              JOINT lPinky1
              {
                OFFSET 8.27202 -0.0477905 -0.4584
                CHANNELS 3 Zrotation Xrotation Yrotation
                JOINT lPinky2
                {
                  OFFSET 1.82734 -0.647385 -0.700984
                  CHANNELS 3 Zrotation Xrotation Yrotation
                  End Site
                  {
                    OFFSET 1.69225 -0.51767 -0.607171
                  }
                }
              }
            }
          }
        }
      }
    }
  }
  JOINT rButtock
  {
    OFFSET -8.77824 4.35084 1.2192
    CHANNELS 3 Zrotation Xrotation Yrotation
    JOINT rThigh
    {
      OFFSET 0 -1.70687 -2.19456
      CHANNELS 3 Zrotation Xrotation Yrotation
      JOINT rShin
      {
        OFFSET 0 -36.8199 0.73152
        CHANNELS 3 Zrotation Xrotation Yrotation
        JOINT rFoot
        {
          OFFSET 0.73152 -45.1104 -5.12064
          CHANNELS 3 Zrotation Xrotation Yrotation
          End Site
          {
            OFFSET -1.1221 -3.69964 12.103
          }
        }
      }
    }
  }
  JOINT lButtock
  {
    OFFSET 8.77824 4.35084 1.2192
    CHANNELS 3 Zrotation Xrotation Yrotation
    JOINT lThigh
    {
      OFFSET 0 -1.70687 -2.19456
      CHANNELS 3 Zrotation Xrotation Yrotation
      JOINT lShin
      {
        OFFSET 0 -36.8199 0.73152
        CHANNELS 3 Zrotation Xrotation Yrotation
        JOINT lFoot
        {
          OFFSET -0.73152 -45.1104 -5.12064
          CHANNELS 3 Zrotation Xrotation Yrotation
          End Site
          {
            OFFSET 1.1221 -3.69964 12.103
          }
        }
      }
    }
  }
}
MOTION
Frames:	4
Frame Time:	0.03333
31.58671299740672 -3.770427942276001 -1.4513581828214228 296.8021774291992 40.47780632972717 283.02963495254517 9.515381902456284 13.677114844322205 17.684376686811447 -9.302535206079483 -3.1183113902807236 4.183896705508232 -2.1296367421746254 5.9542036056518555 7.616463080048561 -2.87713922560215 -22.93423354625702 21.144644916057587 4.026239812374115 7.119345143437386 -6.308464407920837 0.5600957851856947 3.022462986409664 7.551271319389343 -7.58952833712101 -3.6960605531930923 -0.7073984295129776 72.42649912834167 34.472611248493195 -27.41828352212906 -17.955269068479538 -37.71775424480438 90.29175996780396 -44.47683781385422 -43.858811259269714 -52.62669503688812 1.5792960673570633 -0.7121616974473 -7.342478781938553 -12.32971653342247 3.8938701152801514 1.5939778089523315 8.314145877957344 -2.645455375313759 -0.6703859567642212 11.18750050663948 -2.298467382788658 -0.8245398011058569 2.147895712405443 1.2269488535821438 2.5610968843102455 1.669333130121231 8.195832297205925 2.351454421877861 -5.264448747038841 3.337121307849884 -6.467876136302948 7.299652621150017 0.38910621777176857 -1.1016087234020233 -5.58230996131897 1.4047003537416458 1.0940600652247667 -2.1294375881552696 2.952721193432808 0.7471554726362228 -5.241597667336464 7.686918675899506 -4.240455776453018 -71.16783499717712 -13.222076743841171 -75.11098802089691 9.727504402399063 -11.875070035457611 -17.008633017539978 29.977301359176636 51.41435265541077 -37.36055374145508 -3.5941389575600624 -0.44556839391589165 -5.4176270216703415 2.541281059384346 4.361228942871094 -1.1696255207061768 0.46709194779396057 6.6783396899700165 0.36549054086208344 -4.779439643025398 8.840414732694626 -0.378671083599329 -4.691613391041756 -4.097129926085472 2.8329920768737793 -8.465810716152191 -1.2257162109017372 -11.181089356541634 -7.378664463758469 6.970424875617027 -2.7047529816627502 -14.047088027000427 0.8331229537725449 -3.391459845006466 8.150311186909676 -0.1519093383103609 -4.102386385202408 -4.515821412205696 -0.15124037861824036 -2.769244685769081 0.0178917171433568 2.97589547932148 -0.9962005913257599 -13.766358643770218 -12.135894745588303 -7.028819248080254 -15.532699227333069 52.531750202178955 4.913391172885895 -18.82803037762642 -14.6156707406044 -29.571756720542908 3.050851821899414 -5.492937415838242 -3.5460717603564262 53.38808298110962 -46.971927881240845 44.419848918914795 13.51469099521637 76.5821099281311 2.5645220652222633 1.749466136097908 -3.691723421216011 2.6773223653435707
31.554193891584873 -3.8102290630340576 -1.609431488905102 288.09690713882446 35.92712223529816 268.00535917282104 8.641491383314133 14.671982377767563 17.10527703166008 -9.226090237498283 -3.408593460917473 3.2137641683220863 -1.882876195013523 4.976316466927528 7.086482718586922 -3.4459391981363297 -23.766345977783203 21.917496621608734 4.229810759425163 7.111867144703865 -7.012424916028976 0.6634064298123121 2.094779424369335 8.343609273433685 -7.538226395845413 -3.9789383858442307 -1.2054135650396347 70.04119992256165 33.18605750799179 -26.12348735332489 -18.259599208831787 -37.044492959976196 86.48949801921844 -41.26720994710922 -43.31009566783905 -49.98857617378235 1.9505701214075089 -1.0216832533478737 -5.340526252985001 -12.77186930179596 3.1299568712711334 0.733339749276638 8.426757752895355 -2.3006104677915573 0.05183503031730652 10.519278421998024 -2.4335353821516037 -0.4718038346618414 0.2791222371160984 -0.30732298269867897 2.0500415191054344 2.8915849328041077 9.371727481484413 3.044494315981865 -5.938536152243614 2.641283869743347 -5.8064500987529755 5.758331939578056 0.948962364345789 -0.6878431141376495 -5.875985026359558 1.18577241897583 0.7416513282805681 -3.166603557765484 1.6642530262470245 0.5740980058908463 -5.334377959370613 8.401440382003784 -4.969335347414017 -69.34694230556488 -12.92796716094017 -71.15015923976898 9.533061683177948 -13.107142746448517 -18.846461176872253 27.31890767812729 46.84840679168701 -35.65054625272751 -2.832545153796673 -0.07795555517077446 -4.407165125012398 1.9018417596817017 4.703988432884216 -1.6375771164894104 1.4875799417495728 7.3123569041490555 -0.4910675436258316 -5.624937638640404 8.698507100343704 -0.3804044611752033 -5.345196649432182 -4.418752267956734 2.626909241080284 -7.901015281677246 -1.116781309247017 -11.669536381959915 -7.760856449604034 7.847045883536339 -2.883232869207859 -14.966589510440826 2.2935938090085983 -3.0184322968125343 8.753489032387733 -0.2766059059649706 -4.415748864412308 -4.121307358145714 0.4950546473264694 -3.501121625304222 -0.7229404896497726 2.725552674382925 -1.2383316457271576 -13.783291429281235 -12.82751977443695 -7.272624000906944 -12.877707928419113 53.309032917022705 4.156485199928284 -19.591360241174698 -14.715883433818817 -27.876648902893066 2.384636700153351 -6.102710142731667 -3.7575089558959007 53.44297170639038 -45.96410393714905 44.897775650024414 11.59081220626831 76.01054191589355 4.291774816811085 2.5656797736883163 -3.631826341152191 2.643717974424362
31.48524371534586 -3.9603068828582764 -1.806508942041546 310.9257674217224 36.119425892829895 280.58449029922485 9.599085599184036 14.822038561105728 14.91144061088562 -8.178911581635475 -3.316633924841881 2.437412850558758 -4.476322196424007 4.548600018024445 8.610811606049538 -3.9463991671800613 -23.04062068462372 22.118847370147705 3.5474514216184616 6.286256387829781 -5.161919631063938 2.544536255300045 2.766597680747509 7.824443578720093 -3.7169288098812103 -3.0718018859624863 -2.7960077673196793 71.02580666542053 33.595306277275085 -27.384544014930725 -16.962767243385315 -37.27091699838638 80.54094314575195 -37.88553714752197 -43.776386976242065 -52.1795117855072 4.002717509865761 -0.2845679596066475 -3.4709246456623077 -13.920017033815384 3.7744005024433136 1.891213171184063 9.175839051604271 -0.7651021331548691 1.214623600244522 10.15001267194748 -0.9153836220502853 -0.47438948415219784 0.04856156185269356 0.10244881734251976 1.3486626371741295 3.8175223767757416 10.346824452280998 2.093879207968712 -6.429251655936241 2.826581597328186 -5.115789659321308 2.4222045578062534 3.0421681702136993 -0.6984271109104156 -3.2098746299743652 0.8329781144857407 0.4127776762470603 -6.860236376523972 1.9242019951343536 -0.5875787883996964 -4.602576121687889 11.548319309949875 -7.837473079562187 -73.95200550556183 -15.707608759403229 -64.31883573532104 9.780272170901299 -14.653937816619873 -16.449817568063736 24.658196568489075 47.02217102050781 -35.07821649312973 -4.312837198376656 0.36518560722470284 -3.7232527881860733 1.941884122788906 8.137048333883286 -2.8563648462295532 -1.4585275948047638 6.346992328763008 0.9811031073331833 -8.023061826825142 7.371988445520401 1.076365616172552 -5.8931853622198105 -4.597359225153923 -0.7512092962861061 -5.956118702888489 -2.672109492123127 -8.328906744718552 -11.520302295684814 7.5319574028253555 -5.258928090333939 -13.289503455162048 1.2622898072004318 -3.809826783835888 8.284900411963463 -2.438730150461197 -2.913021147251129 -3.329252377152443 1.3100364804267883 -4.82871450483799 -1.4443621784448624 5.634579509496689 -2.105182707309723 -10.374957472085953 -10.470505803823471 -5.616998299956322 -9.15511965751648 53.719754219055176 3.080669268965721 -22.023305743932724 -14.717506170272827 -26.86707079410553 4.198015853762627 -5.5323974043130875 -3.675493039190769 50.694699883461 -46.464545130729675 43.23589503765106 6.37504555284977 71.6712212562561 5.550355799496174 0.8048618584871292 -4.8891473561525345 -0.7132308930158615
31.40741854161024 -4.009148120880127 -1.9377403245307505 293.1909370422363 35.403828620910645 274.556987285614 11.88763752579689 14.616608172655106 13.925528973340988 -6.538128554821014 -3.848169967532158 2.1014685183763504 -5.4063889011740685 4.762224555015564 8.155721202492714 -1.2189191579818726 -22.89875328540802 20.295138359069824 3.892172947525978 4.884850457310677 -6.529931724071503 2.7817628905177116 3.6844469234347343 7.251508980989456 -1.6520094126462936 -3.6126451939344406 -4.4788578897714615 70.15661537647247 31.273457407951355 -28.827808499336243 -15.929697006940842 -37.02260076999664 79.16095197200775 -33.747618198394775 -39.1482675075531 -49.57059144973755 2.3012233525514603 0.5264368280768394 -2.161930203437805 -12.349712401628494 3.5077567398548126 2.960125096142292 6.668221056461334 0.8047599345445633 4.202858582139015 10.458706766366959 -0.9895473718643188 -0.6003701593726873 -0.15084190294146538 0.9874121658504009 1.2885529920458794 4.2093367874622345 10.983540639281273 1.768413931131363 -6.821429505944252 3.5633093118667603 -4.169266261160374 2.226592395454645 2.666064966470003 -0.8994747698307037 -1.0409250855445862 0.08305896073579788 -0.2144421497359872 -5.76025977730751 1.1022772639989853 -0.28105728328227997 -3.966788314282894 11.736005544662476 -6.688381880521774 -73.92253339290619 -15.130653530359268 -58.87171447277069 8.905459642410278 -15.21320253610611 -16.263865381479263 23.064559400081635 43.62340718507767 -34.17909175157547 -4.582075998187065 0.6252928264439106 -3.542744144797325 3.1558505818247795 8.519460260868073 -5.384297892451286 -3.513912409543991 5.358981862664223 1.0327114909887314 -10.565891191363335 6.603671014308929 -0.4607587493956089 -4.272589311003685 -4.1649080067873 -1.0779496282339096 -4.351291693747044 -2.8894173726439476 -7.220375239849091 -11.961135417222977 6.248211935162544 -6.315307393670082 -12.039022743701935 -0.44464655220508575 -4.873810820281506 7.568706348538399 -2.2579586505889893 -1.4289532229304314 -1.6169153898954391 0.9536989778280258 -4.789630696177483 -0.35585063975304365 5.11217437684536 -1.2586010992527008 -11.22535452246666 -9.913400262594223 -8.055480346083641 -10.573710501194 53.41405212879181 5.4198478907346725 -20.072787255048752 -16.28799319267273 -28.002707362174988 4.3748364597558975 -5.946226045489311 -2.4111030623316765 50.04229009151459 -46.20898962020874 41.45198464393616 8.787176236510277 68.39264988899231 4.991673119366169 0.2252257615327835 -5.324019268155098 -1.617257371544838
